# xmcd CD database file
# Copyright (C) 1997 Ti Kan
# 
# Track frame offsets:
#     150
#     11622
#     26665
#     36985
#     50090
#     62702
#     75872
#     89887
#     100302
#     116345
#     127025
#     137997
#     148237
# 
# Disc length: 2160 seconds
# 
# Revision: 1
# Processed by: cddbd v1.4b41PL1 Copyright (c) Steve Scherf et al.
# Submitted via: DiscPlay 4.0.3
# 
DISCID=bc086e0d
DTITLE=The Nashville Bluegrass Band - Unleashed
DYEAR=1900
DGENRE=
TTITLE0=Tear My Stillhouse Down
TTITLE1=Dark Shadows of Night
TTITLE2=Boll Weevil
TTITLE3=Last Time On The Road
TTITLE4=I Got A Date
TTITLE5=Blackbirds and Crows
TTITLE6=One More Dollar
TTITLE7=Doorstep Of Trouble
TTITLE8=You Wouldn't Know Love
TTITLE9=Dog Remembers Bacon
TTITLE10=Little White Washed Chimney
TTITLE11=Almost
TTITLE12=Last Month Of The Year
EXTD=
EXTT0=
EXTT1=
EXTT2=
EXTT3=
EXTT4=
EXTT5=
EXTT6=
EXTT7=
EXTT8=
EXTT9=
EXTT10=
EXTT11=
EXTT12=
PLAYORDER=
